<svg width="1440" height="829" viewBox="0 0 1440 829" fill="none" xmlns="http://www.w3.org/2000/svg">
<g filter="url(#filter0_f_9_49)">
<g filter="url(#filter1_f_9_49)">
<path d="M706.68 461.7C715.296 458.659 724.693 458.659 733.31 461.7L1498.28 731.737C1514.27 737.382 1524.97 752.497 1524.97 769.456V1281.17C1524.97 1298.13 1514.27 1313.25 1498.28 1318.89L733.31 1588.93C724.693 1591.97 715.296 1591.97 706.68 1588.93L-58.2909 1318.89C-74.2823 1313.25 -84.976 1298.13 -84.976 1281.17V769.456C-84.976 752.497 -74.2823 737.382 -58.2909 731.737L706.68 461.7Z" fill="url(#paint0_linear_9_49)"/>
</g>
<g style="mix-blend-mode:plus-lighter" filter="url(#filter2_f_9_49)">
<rect x="286.228" y="722.212" width="743.6" height="454.651" rx="40" fill="white"/>
</g>
</g>
<defs>
<filter id="filter0_f_9_49" x="-484.976" y="59.4191" width="2409.94" height="1931.79" filterUnits="userSpaceOnUse" color-interpolation-filters="sRGB">
<feFlood flood-opacity="0" result="BackgroundImageFix"/>
<feBlend mode="normal" in="SourceGraphic" in2="BackgroundImageFix" result="shape"/>
<feGaussianBlur stdDeviation="200" result="effect1_foregroundBlur_9_49"/>
</filter>
<filter id="filter1_f_9_49" x="-321.907" y="222.488" width="2083.8" height="1605.65" filterUnits="userSpaceOnUse" color-interpolation-filters="sRGB">
<feFlood flood-opacity="0" result="BackgroundImageFix"/>
<feBlend mode="normal" in="SourceGraphic" in2="BackgroundImageFix" result="shape"/>
<feGaussianBlur stdDeviation="118.466" result="effect1_foregroundBlur_9_49"/>
</filter>
<filter id="filter2_f_9_49" x="-435.502" y="0.4823" width="2187.06" height="1898.11" filterUnits="userSpaceOnUse" color-interpolation-filters="sRGB">
<feFlood flood-opacity="0" result="BackgroundImageFix"/>
<feBlend mode="normal" in="SourceGraphic" in2="BackgroundImageFix" result="shape"/>
<feGaussianBlur stdDeviation="360.865" result="effect1_foregroundBlur_9_49"/>
</filter>
<linearGradient id="paint0_linear_9_49" x1="369.923" y1="597.233" x2="749.251" y2="1577.29" gradientUnits="userSpaceOnUse">
<stop stop-color="#F0D1FF"/>
<stop offset="0.48" stop-color="#68A2FF"/>
<stop offset="1" stop-color="#2D18FB"/>
</linearGradient>
</defs>
</svg>
