<svg width="41" height="41" viewBox="0 0 41 41" fill="none" xmlns="http://www.w3.org/2000/svg">
<path d="M26.4348 23.0435V33.2174C26.4348 34.1539 25.6756 34.913 24.7391 34.913H7.78261C6.84613 34.913 6.08696 34.1539 6.08696 33.2174V16.2609C6.08696 15.3244 6.84613 14.5652 7.78261 14.5652H24.7391M16.2609 34.913V40M23.0435 34.913V40M16.2609 9.47826V14.5652M9.47826 34.913V40M9.47826 9.47826V14.5652M26.4348 31.5217H31.5217M6.08696 24.7391H1M31.5217 24.7391H26.4348M6.08696 17.9565H1M6.08696 31.5217H1M37.4565 1L34.913 7.78261H40L27.2826 19.6522L31.0639 11.1739H26.4348L30.6739 1H37.4565ZM12.8696 17.9565H19.6522C19.6522 17.9565 23.0435 17.9565 23.0435 21.3478V28.1304C23.0435 28.1304 23.0435 31.5217 19.6522 31.5217H12.8696C12.8696 31.5217 9.47826 31.5217 9.47826 28.1304V21.3478C9.47826 21.3478 9.47826 17.9565 12.8696 17.9565Z" stroke="white" stroke-width="2" stroke-linecap="round" stroke-linejoin="round"/>
</svg>
