<svg width="34" height="34" viewBox="0 0 34 34" fill="none" xmlns="http://www.w3.org/2000/svg">
<path d="M33 9.34783H16.3044M28.1304 16.3043H21.1739M24.6522 13.5217V16.3043M17.6957 26.0435H1M12.8261 33H5.86957M9.34783 30.2174V33M3.78261 12.1304V8.30435C3.78185 5.42254 6.1182 3.08619 9 3.08696H11.4348M3.78261 12.1304L6.56522 9.34783M3.78261 12.1304L1 9.34783M11.4348 3.08696L9.34783 1M11.4348 3.08696L9.34783 5.17391M33 10.0435V11.4056C33.0031 12.5642 32.0716 13.5088 30.913 13.5217H18.3913C17.233 13.508 16.302 12.5639 16.3044 11.4056V3.08696C16.3044 1.93436 17.2387 1 18.3913 1H30.913C32.0656 1 33 1.93436 33 3.08696V10.0435ZM17.6957 26.7391V28.1012C17.6988 29.2599 16.7673 30.2044 15.6087 30.2174H3.08696C1.9287 30.2037 0.997634 29.2596 1 28.1012V19.7826C1 18.63 1.93437 17.6957 3.08696 17.6957H15.6087C16.7613 17.6957 17.6957 18.63 17.6957 19.7826V26.7391Z" stroke="white" stroke-width="2" stroke-linecap="round" stroke-linejoin="round"/>
</svg>
