<svg width="34" height="34" viewBox="0 0 34 34" fill="none" xmlns="http://www.w3.org/2000/svg">
<path d="M17.9244 16.2178C13.0889 1.71108 12.0933 1 9.10668 1V5.12443L2.13776 8.67999C1.42665 8.96443 1 9.67553 1 10.5289V11.24C1 13.5155 2.84887 15.3644 5.12443 15.3644H7.11554V25.32M7.11563 20.3421L17.3182 14.4044M33 23.4711V26.6M33 23.4711L23.4711 27.7378L13.8 23.4711L23.4711 19.2044L33 23.4711ZM28.7333 25.5777V30.8667C28.7333 30.8667 26.6 33 23.4711 33C20.3422 33 18.0667 30.8667 18.0667 30.8667V25.5777" stroke="white" stroke-width="2" stroke-linecap="round" stroke-linejoin="round"/>
</svg>
