<svg width="34" height="34" viewBox="0 0 34 34" fill="none" xmlns="http://www.w3.org/2000/svg">
<path d="M32.9998 23.0445L19.4887 33H32.9998V23.0445ZM32.9998 23.0445V1.71111M1 1L8.82223 14.5111M8.82223 14.5111C5.69334 16.36 4.27108 19.6311 5.69331 22.0489M8.82223 14.5111C11.9511 12.8044 15.5066 13.2311 16.7866 15.6489M5.69331 22.0489L16.7866 15.6489M5.69331 22.0489L8.82221 27.5956M16.7866 15.6489L19.9155 21.1956M9.39116 19.9156L12.5201 25.4623M13.0889 17.7822L16.2179 23.3289M2.70667 33.0002C2.54957 33.0002 2.42222 32.8729 2.42222 32.7157C2.42222 32.5587 2.54957 32.4313 2.70667 32.4313C2.86377 32.4313 2.99105 32.5587 2.99105 32.7157C2.99105 32.8729 2.86377 33.0002 2.70667 33.0002ZM7.68445 33.0002C7.52735 33.0002 7.40001 32.8729 7.40001 32.7157C7.40001 32.5587 7.52735 32.4313 7.68445 32.4313C7.84155 32.4313 7.96884 32.5587 7.96884 32.7157C7.96884 32.8729 7.84155 33.0002 7.68445 33.0002ZM12.6622 33.0002C12.5051 33.0002 12.3778 32.8729 12.3778 32.7157C12.3778 32.5587 12.5051 32.4313 12.6622 32.4313C12.8193 32.4313 12.9466 32.5587 12.9466 32.7157C12.9466 32.8729 12.8193 33.0002 12.6622 33.0002Z" stroke="white" stroke-width="2" stroke-linecap="round" stroke-linejoin="round"/>
</svg>
