<svg xmlns="http://www.w3.org/2000/svg" xmlns:xlink="http://www.w3.org/1999/xlink" contentStyleType="text/css" data-diagram-type="DESCRIPTION" height="960px" preserveAspectRatio="none" style="width:2767px;height:960px;background:#FFFFFF;" version="1.1" viewBox="0 0 2767 960" width="2767px" zoomAndPan="magnify"><title>Chat-App System Architecture (Vertical, Narrow Layout)</title><defs/><g><g class="title" data-source-line="5"><text fill="#000000" font-family="Verdana" font-size="22" font-weight="bold" lengthAdjust="spacing" textLength="698.9512" x="1029.5244" y="35.4209">Chat-App System Architecture (Vertical, Narrow Layout)</text></g><!--cluster Internet & CDN Layer--><g class="cluster" data-entity="Internet . CDN Layer" data-source-line="7" data-uid="ent0002" id="cluster_Internet . CDN Layer"><path d="M236.5,57.6094 L406.2588,57.6094 A3.75,3.75 0 0 1 408.7588,60.1094 L415.7588,79.9063 L757.5,79.9063 A2.5,2.5 0 0 1 760,82.4063 L760,272.6994 A2.5,2.5 0 0 1 757.5,275.1994 L236.5,275.1994 A2.5,2.5 0 0 1 234,272.6994 L234,60.1094 A2.5,2.5 0 0 1 236.5,57.6094" fill="#FFFFFF" style="stroke:#000000;stroke-width:1;"/><line style="stroke:#000000;stroke-width:1;" x1="234" x2="415.7588" y1="79.9063" y2="79.9063"/><text fill="#000000" font-family="Verdana" font-size="14" font-weight="bold" lengthAdjust="spacing" textLength="168.7588" x="238" y="72.6045">Internet &amp; CDN Layer</text></g><!--cluster Client Layer--><g class="cluster" data-entity="Client Layer" data-source-line="15" data-uid="ent0008" id="cluster_Client Layer"><path d="M786.5,144.8994 L882.2939,144.8994 A3.75,3.75 0 0 1 884.7939,147.3994 L891.7939,167.1962 L1873.5,167.1962 A2.5,2.5 0 0 1 1876,169.6962 L1876,407.9994 A2.5,2.5 0 0 1 1873.5,410.4994 L786.5,410.4994 A2.5,2.5 0 0 1 784,407.9994 L784,147.3994 A2.5,2.5 0 0 1 786.5,144.8994" fill="#FFFFFF" style="stroke:#000000;stroke-width:1;"/><line style="stroke:#000000;stroke-width:1;" x1="784" x2="891.7939" y1="167.1962" y2="167.1962"/><text fill="#000000" font-family="Verdana" font-size="14" font-weight="bold" lengthAdjust="spacing" textLength="94.7939" x="788" y="159.8945">Client Layer</text></g><!--cluster Components--><g class="cluster" data-entity="Components" data-source-line="17" data-uid="ent0010" id="cluster_Components"><path d="M810.5,187.8994 L910.0742,187.8994 A3.75,3.75 0 0 1 912.5742,190.3994 L919.5742,210.1962 L1086.5,210.1962 A2.5,2.5 0 0 1 1089,212.6962 L1089,383.9994 A2.5,2.5 0 0 1 1086.5,386.4994 L810.5,386.4994 A2.5,2.5 0 0 1 808,383.9994 L808,190.3994 A2.5,2.5 0 0 1 810.5,187.8994" fill="#FFFFFF" style="stroke:#000000;stroke-width:1;"/><line style="stroke:#000000;stroke-width:1;" x1="808" x2="919.5742" y1="210.1962" y2="210.1962"/><text fill="#000000" font-family="Verdana" font-size="14" font-weight="bold" lengthAdjust="spacing" textLength="98.5742" x="812" y="202.8945">Components</text></g><!--cluster State Management--><g class="cluster" data-entity="State Management" data-source-line="22" data-uid="ent0014" id="cluster_State Management"><path d="M1115.5,187.8994 L1266.8359,187.8994 A3.75,3.75 0 0 1 1269.3359,190.3994 L1276.3359,210.1962 L1419.5,210.1962 A2.5,2.5 0 0 1 1422,212.6962 L1422,272.6994 A2.5,2.5 0 0 1 1419.5,275.1994 L1115.5,275.1994 A2.5,2.5 0 0 1 1113,272.6994 L1113,190.3994 A2.5,2.5 0 0 1 1115.5,187.8994" fill="#FFFFFF" style="stroke:#000000;stroke-width:1;"/><line style="stroke:#000000;stroke-width:1;" x1="1113" x2="1276.3359" y1="210.1962" y2="210.1962"/><text fill="#000000" font-family="Verdana" font-size="14" font-weight="bold" lengthAdjust="spacing" textLength="150.3359" x="1117" y="202.8945">State Management</text></g><!--cluster Client Services--><g class="cluster" data-entity="Client Services" data-source-line="26" data-uid="ent0017" id="cluster_Client Services"><path d="M1448.5,187.8994 L1566.9346,187.8994 A3.75,3.75 0 0 1 1569.4346,190.3994 L1576.4346,210.1962 L1710.5,210.1962 A2.5,2.5 0 0 1 1713,212.6962 L1713,383.9994 A2.5,2.5 0 0 1 1710.5,386.4994 L1448.5,386.4994 A2.5,2.5 0 0 1 1446,383.9994 L1446,190.3994 A2.5,2.5 0 0 1 1448.5,187.8994" fill="#FFFFFF" style="stroke:#000000;stroke-width:1;"/><line style="stroke:#000000;stroke-width:1;" x1="1446" x2="1576.4346" y1="210.1962" y2="210.1962"/><text fill="#000000" font-family="Verdana" font-size="14" font-weight="bold" lengthAdjust="spacing" textLength="117.4346" x="1450" y="202.8945">Client Services</text></g><!--cluster Gateway Layer--><g class="cluster" data-entity="Gateway Layer" data-source-line="33" data-uid="ent0021" id="cluster_Gateway Layer"><path d="M1902.5,299.1994 L2020.9004,299.1994 A3.75,3.75 0 0 1 2023.4004,301.6994 L2030.4004,321.4963 L2359.5,321.4963 A2.5,2.5 0 0 1 2362,323.9963 L2362,480.2894 A2.5,2.5 0 0 1 2359.5,482.7894 L1902.5,482.7894 A2.5,2.5 0 0 1 1900,480.2894 L1900,301.6994 A2.5,2.5 0 0 1 1902.5,299.1994" fill="#FFFFFF" style="stroke:#000000;stroke-width:1;"/><line style="stroke:#000000;stroke-width:1;" x1="1900" x2="2030.4004" y1="321.4963" y2="321.4963"/><text fill="#000000" font-family="Verdana" font-size="14" font-weight="bold" lengthAdjust="spacing" textLength="117.4004" x="1904" y="314.1945">Gateway Layer</text></g><!--cluster Backend Layer--><g class="cluster" data-entity="Backend Layer" data-source-line="40" data-uid="ent0026" id="cluster_Backend Layer"><path d="M13.5,506.7894 L130.4785,506.7894 A3.75,3.75 0 0 1 132.9785,509.2894 L139.9785,529.0863 L2445.5,529.0863 A2.5,2.5 0 0 1 2448,531.5863 L2448,839.1794 A2.5,2.5 0 0 1 2445.5,841.6794 L13.5,841.6794 A2.5,2.5 0 0 1 11,839.1794 L11,509.2894 A2.5,2.5 0 0 1 13.5,506.7894" fill="#FFFFFF" style="stroke:#000000;stroke-width:1;"/><line style="stroke:#000000;stroke-width:1;" x1="11" x2="139.9785" y1="529.0863" y2="529.0863"/><text fill="#000000" font-family="Verdana" font-size="14" font-weight="bold" lengthAdjust="spacing" textLength="115.9785" x="15" y="521.7845">Backend Layer</text></g><!--cluster API Layer--><g class="cluster" data-entity="API Layer" data-source-line="42" data-uid="ent0028" id="cluster_API Layer"><path d="M1018.5,603.0894 L1094.5723,603.0894 A3.75,3.75 0 0 1 1097.0723,605.5894 L1104.0723,625.3863 L1381.5,625.3863 A2.5,2.5 0 0 1 1384,627.8863 L1384,687.8894 A2.5,2.5 0 0 1 1381.5,690.3894 L1018.5,690.3894 A2.5,2.5 0 0 1 1016,687.8894 L1016,605.5894 A2.5,2.5 0 0 1 1018.5,603.0894" fill="#FFFFFF" style="stroke:#000000;stroke-width:1;"/><line style="stroke:#000000;stroke-width:1;" x1="1016" x2="1104.0723" y1="625.3863" y2="625.3863"/><text fill="#000000" font-family="Verdana" font-size="14" font-weight="bold" lengthAdjust="spacing" textLength="75.0723" x="1020" y="618.0845">API Layer</text></g><!--cluster Real-time--><g class="cluster" data-entity="Real-time" data-source-line="50" data-uid="ent0034" id="cluster_Real-time"><path d="M1410.5,603.0894 L1487.4063,603.0894 A3.75,3.75 0 0 1 1489.9063,605.5894 L1496.9063,625.3863 L1845.5,625.3863 A2.5,2.5 0 0 1 1848,627.8863 L1848,815.1794 A2.5,2.5 0 0 1 1845.5,817.6794 L1410.5,817.6794 A2.5,2.5 0 0 1 1408,815.1794 L1408,605.5894 A2.5,2.5 0 0 1 1410.5,603.0894" fill="#FFFFFF" style="stroke:#000000;stroke-width:1;"/><line style="stroke:#000000;stroke-width:1;" x1="1408" x2="1496.9063" y1="625.3863" y2="625.3863"/><text fill="#000000" font-family="Verdana" font-size="14" font-weight="bold" lengthAdjust="spacing" textLength="75.9063" x="1412" y="618.0845">Real-time</text></g><!--cluster File Features--><g class="cluster" data-entity="File Features" data-source-line="58" data-uid="ent0040" id="cluster_File Features"><path d="M1874.5,603.0894 L1978.9277,603.0894 A3.75,3.75 0 0 1 1981.4277,605.5894 L1988.4277,625.3863 L2421.5,625.3863 A2.5,2.5 0 0 1 2424,627.8863 L2424,687.8894 A2.5,2.5 0 0 1 2421.5,690.3894 L1874.5,690.3894 A2.5,2.5 0 0 1 1872,687.8894 L1872,605.5894 A2.5,2.5 0 0 1 1874.5,603.0894" fill="#FFFFFF" style="stroke:#000000;stroke-width:1;"/><line style="stroke:#000000;stroke-width:1;" x1="1872" x2="1988.4277" y1="625.3863" y2="625.3863"/><text fill="#000000" font-family="Verdana" font-size="14" font-weight="bold" lengthAdjust="spacing" textLength="103.4277" x="1876" y="618.0845">File Features</text></g><!--cluster Queue & Bus--><g class="cluster" data-entity="Queue . Bus" data-source-line="65" data-uid="ent0045" id="cluster_Queue . Bus"><path d="M37.5,603.0894 L140.2529,603.0894 A3.75,3.75 0 0 1 142.7529,605.5894 L149.7529,625.3863 L441.5,625.3863 A2.5,2.5 0 0 1 444,627.8863 L444,687.8894 A2.5,2.5 0 0 1 441.5,690.3894 L37.5,690.3894 A2.5,2.5 0 0 1 35,687.8894 L35,605.5894 A2.5,2.5 0 0 1 37.5,603.0894" fill="#FFFFFF" style="stroke:#000000;stroke-width:1;"/><line style="stroke:#000000;stroke-width:1;" x1="35" x2="149.7529" y1="625.3863" y2="625.3863"/><text fill="#000000" font-family="Verdana" font-size="14" font-weight="bold" lengthAdjust="spacing" textLength="101.7529" x="39" y="618.0845">Queue &amp; Bus</text></g><!--cluster Caching--><g class="cluster" data-entity="Caching" data-source-line="72" data-uid="ent0050" id="cluster_Caching"><path d="M470.5,603.0894 L534.2744,603.0894 A3.75,3.75 0 0 1 536.7744,605.5894 L543.7744,625.3863 L851.5,625.3863 A2.5,2.5 0 0 1 854,627.8863 L854,687.8894 A2.5,2.5 0 0 1 851.5,690.3894 L470.5,690.3894 A2.5,2.5 0 0 1 468,687.8894 L468,605.5894 A2.5,2.5 0 0 1 470.5,603.0894" fill="#FFFFFF" style="stroke:#000000;stroke-width:1;"/><line style="stroke:#000000;stroke-width:1;" x1="468" x2="543.7744" y1="625.3863" y2="625.3863"/><text fill="#000000" font-family="Verdana" font-size="14" font-weight="bold" lengthAdjust="spacing" textLength="62.7744" x="472" y="618.0845">Caching</text></g><!--cluster Monitoring--><g class="cluster" data-entity="Monitoring" data-source-line="79" data-uid="ent0054" id="cluster_Monitoring"><path d="M2310.5,57.6094 L2397.8174,57.6094 A3.75,3.75 0 0 1 2400.3174,60.1094 L2407.3174,79.9063 L2552.5,79.9063 A2.5,2.5 0 0 1 2555,82.4063 L2555,272.6994 A2.5,2.5 0 0 1 2552.5,275.1994 L2310.5,275.1994 A2.5,2.5 0 0 1 2308,272.6994 L2308,60.1094 A2.5,2.5 0 0 1 2310.5,57.6094" fill="#FFFFFF" style="stroke:#000000;stroke-width:1;"/><line style="stroke:#000000;stroke-width:1;" x1="2308" x2="2407.3174" y1="79.9063" y2="79.9063"/><text fill="#000000" font-family="Verdana" font-size="14" font-weight="bold" lengthAdjust="spacing" textLength="86.3174" x="2312" y="72.6045">Monitoring</text></g><!--cluster Database Layer--><g class="cluster" data-entity="Database Layer" data-source-line="85" data-uid="ent0058" id="cluster_Database Layer"><path d="M2474.5,603.0894 L2598.7725,603.0894 A3.75,3.75 0 0 1 2601.2725,605.5894 L2608.2725,625.3863 L2757.5,625.3863 A2.5,2.5 0 0 1 2760,627.8863 L2760,951.4794 A2.5,2.5 0 0 1 2757.5,953.9794 L2474.5,953.9794 A2.5,2.5 0 0 1 2472,951.4794 L2472,605.5894 A2.5,2.5 0 0 1 2474.5,603.0894" fill="#FFFFFF" style="stroke:#000000;stroke-width:1;"/><line style="stroke:#000000;stroke-width:1;" x1="2472" x2="2608.2725" y1="625.3863" y2="625.3863"/><text fill="#000000" font-family="Verdana" font-size="14" font-weight="bold" lengthAdjust="spacing" textLength="123.2725" x="2476" y="618.0845">Database Layer</text></g><!--cluster Collections--><g class="cluster" data-entity="Collections" data-source-line="87" data-uid="ent0060" id="cluster_Collections"><path d="M2506.5,722.3894 L2594.1934,722.3894 A3.75,3.75 0 0 1 2596.6934,724.8894 L2603.6934,744.6863 L2725.5,744.6863 A2.5,2.5 0 0 1 2728,747.1863 L2728,919.4794 A2.5,2.5 0 0 1 2725.5,921.9794 L2506.5,921.9794 A2.5,2.5 0 0 1 2504,919.4794 L2504,724.8894 A2.5,2.5 0 0 1 2506.5,722.3894" fill="#FFFFFF" style="stroke:#000000;stroke-width:1;"/><line style="stroke:#000000;stroke-width:1;" x1="2504" x2="2603.6934" y1="744.6863" y2="744.6863"/><text fill="#000000" font-family="Verdana" font-size="14" font-weight="bold" lengthAdjust="spacing" textLength="86.6934" x="2508" y="737.3845">Collections</text></g><!--entity CloudFlare CDN--><g class="entity" data-entity="CloudFlare CDN" data-source-line="8" data-uid="ent0003" id="entity_CloudFlare CDN"><rect fill="#FFFFFF" height="36.2969" rx="2.5" ry="2.5" style="stroke:#000000;stroke-width:1;" width="130.3594" x="613.82" y="92.6094"/><text fill="#000000" font-family="Verdana" font-size="14" lengthAdjust="spacing" textLength="110.3594" x="623.82" y="115.6045">CloudFlare CDN</text></g><!--entity DNS Resolution--><g class="entity" data-entity="DNS Resolution" data-source-line="9" data-uid="ent0004" id="entity_DNS Resolution"><rect fill="#FFFFFF" height="36.2969" rx="2.5" ry="2.5" style="stroke:#000000;stroke-width:1;" width="128.3701" x="249.81" y="92.6094"/><text fill="#000000" font-family="Verdana" font-size="14" lengthAdjust="spacing" textLength="108.3701" x="259.81" y="115.6045">DNS Resolution</text></g><!--entity SSL/TLS Termination--><g class="entity" data-entity="SSL.TLS Termination" data-source-line="10" data-uid="ent0005" id="entity_SSL.TLS Termination"><rect fill="#FFFFFF" height="36.2969" rx="2.5" ry="2.5" style="stroke:#000000;stroke-width:1;" width="164.6963" x="413.65" y="92.6094"/><text fill="#000000" font-family="Verdana" font-size="14" lengthAdjust="spacing" textLength="144.6963" x="423.65" y="115.6045">SSL/TLS Termination</text></g><!--entity Load Balancing--><g class="entity" data-entity="Load Balancing" data-source-line="11" data-uid="ent0006" id="entity_Load Balancing"><rect fill="#FFFFFF" height="36.2969" rx="2.5" ry="2.5" style="stroke:#000000;stroke-width:1;" width="127.1533" x="250.42" y="222.8994"/><text fill="#000000" font-family="Verdana" font-size="14" lengthAdjust="spacing" textLength="107.1533" x="260.42" y="245.8945">Load Balancing</text></g><!--entity DDoS Protection--><g class="entity" data-entity="DDoS Protection" data-source-line="12" data-uid="ent0007" id="entity_DDoS Protection"><rect fill="#FFFFFF" height="36.2969" rx="2.5" ry="2.5" style="stroke:#000000;stroke-width:1;" width="134.8438" x="412.58" y="222.8994"/><text fill="#000000" font-family="Verdana" font-size="14" lengthAdjust="spacing" textLength="114.8438" x="422.58" y="245.8945">DDoS Protection</text></g><!--entity React Frontend--><g class="entity" data-entity="React Frontend" data-source-line="16" data-uid="ent0009" id="entity_React Frontend"><rect fill="#FFFFFF" height="36.2969" rx="2.5" ry="2.5" style="stroke:#000000;stroke-width:1;" width="127.666" x="1732.17" y="222.8994"/><text fill="#000000" font-family="Verdana" font-size="14" lengthAdjust="spacing" textLength="107.666" x="1742.17" y="245.8945">React Frontend</text></g><!--entity ChatWindow--><g class="entity" data-entity="ChatWindow" data-source-line="18" data-uid="ent0011" id="entity_ChatWindow"><rect fill="#FFFFFF" height="36.2969" rx="2.5" ry="2.5" style="stroke:#000000;stroke-width:1;" width="108.2246" x="823.89" y="222.8994"/><text fill="#000000" font-family="Verdana" font-size="14" lengthAdjust="spacing" textLength="88.2246" x="833.89" y="245.8945">ChatWindow</text></g><!--entity MessageList--><g class="entity" data-entity="MessageList" data-source-line="19" data-uid="ent0012" id="entity_MessageList"><rect fill="#FFFFFF" height="36.2969" rx="2.5" ry="2.5" style="stroke:#000000;stroke-width:1;" width="105.832" x="967.08" y="222.8994"/><text fill="#000000" font-family="Verdana" font-size="14" lengthAdjust="spacing" textLength="85.832" x="977.08" y="245.8945">MessageList</text></g><!--entity UserList--><g class="entity" data-entity="UserList" data-source-line="20" data-uid="ent0013" id="entity_UserList"><rect fill="#FFFFFF" height="36.2969" rx="2.5" ry="2.5" style="stroke:#000000;stroke-width:1;" width="76.3828" x="839.81" y="334.1994"/><text fill="#000000" font-family="Verdana" font-size="14" lengthAdjust="spacing" textLength="56.3828" x="849.81" y="357.1945">UserList</text></g><!--entity Redux/Context--><g class="entity" data-entity="Redux.Context" data-source-line="23" data-uid="ent0015" id="entity_Redux.Context"><rect fill="#FFFFFF" height="36.2969" rx="2.5" ry="2.5" style="stroke:#000000;stroke-width:1;" width="124.1934" x="1128.9" y="222.8994"/><text fill="#000000" font-family="Verdana" font-size="14" lengthAdjust="spacing" textLength="104.1934" x="1138.9" y="245.8945">Redux/Context</text></g><!--entity Session Mgmt--><g class="entity" data-entity="Session Mgmt" data-source-line="24" data-uid="ent0016" id="entity_Session Mgmt"><rect fill="#FFFFFF" height="36.2969" rx="2.5" ry="2.5" style="stroke:#000000;stroke-width:1;" width="117.959" x="1288.02" y="222.8994"/><text fill="#000000" font-family="Verdana" font-size="14" lengthAdjust="spacing" textLength="97.959" x="1298.02" y="245.8945">Session Mgmt</text></g><!--entity API Client--><g class="entity" data-entity="API Client" data-source-line="27" data-uid="ent0018" id="entity_API Client"><rect fill="#FFFFFF" height="36.2969" rx="2.5" ry="2.5" style="stroke:#000000;stroke-width:1;" width="87.1289" x="1462.44" y="222.8994"/><text fill="#000000" font-family="Verdana" font-size="14" lengthAdjust="spacing" textLength="67.1289" x="1472.44" y="245.8945">API Client</text></g><!--entity Socket Client--><g class="entity" data-entity="Socket Client" data-source-line="28" data-uid="ent0019" id="entity_Socket Client"><rect fill="#FFFFFF" height="36.2969" rx="2.5" ry="2.5" style="stroke:#000000;stroke-width:1;" width="112.3398" x="1584.83" y="222.8994"/><text fill="#000000" font-family="Verdana" font-size="14" lengthAdjust="spacing" textLength="92.3398" x="1594.83" y="245.8945">Socket Client</text></g><!--entity Auth Service--><g class="entity" data-entity="Auth Service" data-source-line="29" data-uid="ent0020" id="entity_Auth Service"><rect fill="#FFFFFF" height="36.2969" rx="2.5" ry="2.5" style="stroke:#000000;stroke-width:1;" width="109.0039" x="1462.5" y="334.1994"/><text fill="#000000" font-family="Verdana" font-size="14" lengthAdjust="spacing" textLength="89.0039" x="1472.5" y="357.1945">Auth Service</text></g><!--entity Nginx / HAProxy--><g class="entity" data-entity="Nginx . HAProxy" data-source-line="34" data-uid="ent0022" id="entity_Nginx . HAProxy"><rect fill="#FFFFFF" height="36.2969" rx="2.5" ry="2.5" style="stroke:#000000;stroke-width:1;" width="133.4629" x="1916.27" y="334.1994"/><text fill="#000000" font-family="Verdana" font-size="14" lengthAdjust="spacing" textLength="113.4629" x="1926.27" y="357.1945">Nginx / HAProxy</text></g><!--entity Rate Limiter--><g class="entity" data-entity="Rate Limiter" data-source-line="35" data-uid="ent0023" id="entity_Rate Limiter"><rect fill="#FFFFFF" height="36.2969" rx="2.5" ry="2.5" style="stroke:#000000;stroke-width:1;" width="105.9346" x="2085.03" y="334.1994"/><text fill="#000000" font-family="Verdana" font-size="14" lengthAdjust="spacing" textLength="85.9346" x="2095.03" y="357.1945">Rate Limiter</text></g><!--entity API Router--><g class="entity" data-entity="API Router" data-source-line="36" data-uid="ent0024" id="entity_API Router"><rect fill="#FFFFFF" height="36.2969" rx="2.5" ry="2.5" style="stroke:#000000;stroke-width:1;" width="93.623" x="1936.19" y="430.4994"/><text fill="#000000" font-family="Verdana" font-size="14" lengthAdjust="spacing" textLength="73.623" x="1946.19" y="453.4945">API Router</text></g><!--entity Auth Gateway--><g class="entity" data-entity="Auth Gateway" data-source-line="37" data-uid="ent0025" id="entity_Auth Gateway"><rect fill="#FFFFFF" height="36.2969" rx="2.5" ry="2.5" style="stroke:#000000;stroke-width:1;" width="119.1074" x="2226.45" y="334.1994"/><text fill="#000000" font-family="Verdana" font-size="14" lengthAdjust="spacing" textLength="99.1074" x="2236.45" y="357.1945">Auth Gateway</text></g><!--entity Express API--><g class="entity" data-entity="Express API" data-source-line="41" data-uid="ent0027" id="entity_Express API"><rect fill="#FFFFFF" height="36.2969" rx="2.5" ry="2.5" style="stroke:#000000;stroke-width:1;" width="101.5732" x="1269.21" y="541.7894"/><text fill="#000000" font-family="Verdana" font-size="14" lengthAdjust="spacing" textLength="81.5732" x="1279.21" y="564.7845">Express API</text></g><!--entity Business Logic--><g class="entity" data-entity="Business Logic" data-source-line="47" data-uid="ent0032" id="entity_Business Logic"><rect fill="#FFFFFF" height="36.2969" rx="2.5" ry="2.5" style="stroke:#000000;stroke-width:1;" width="123.0244" x="873.49" y="638.0894"/><text fill="#000000" font-family="Verdana" font-size="14" lengthAdjust="spacing" textLength="103.0244" x="883.49" y="661.0845">Business Logic</text></g><!--entity Socket.IO Server--><g class="entity" data-entity="Socket.IO Server" data-source-line="49" data-uid="ent0033" id="entity_Socket.IO Server"><rect fill="#FFFFFF" height="36.2969" rx="2.5" ry="2.5" style="stroke:#000000;stroke-width:1;" width="137.3184" x="1914.34" y="541.7894"/><text fill="#000000" font-family="Verdana" font-size="14" lengthAdjust="spacing" textLength="117.3184" x="1924.34" y="564.7845">Socket.IO Server</text></g><!--entity File Service--><g class="entity" data-entity="File Service" data-source-line="57" data-uid="ent0039" id="entity_File Service"><rect fill="#FFFFFF" height="36.2969" rx="2.5" ry="2.5" style="stroke:#000000;stroke-width:1;" width="100.6367" x="2295.68" y="541.7894"/><text fill="#000000" font-family="Verdana" font-size="14" lengthAdjust="spacing" textLength="80.6367" x="2305.68" y="564.7845">File Service</text></g><!--entity Message Queue--><g class="entity" data-entity="Message Queue" data-source-line="64" data-uid="ent0044" id="entity_Message Queue"><rect fill="#FFFFFF" height="36.2969" rx="2.5" ry="2.5" style="stroke:#000000;stroke-width:1;" width="131.8018" x="173.1" y="541.7894"/><text fill="#000000" font-family="Verdana" font-size="14" lengthAdjust="spacing" textLength="111.8018" x="183.1" y="564.7845">Message Queue</text></g><!--entity Cache Layer--><g class="entity" data-entity="Cache Layer" data-source-line="71" data-uid="ent0049" id="entity_Cache Layer"><rect fill="#FFFFFF" height="36.2969" rx="2.5" ry="2.5" style="stroke:#000000;stroke-width:1;" width="107.0215" x="515.49" y="541.7894"/><text fill="#000000" font-family="Verdana" font-size="14" lengthAdjust="spacing" textLength="87.0215" x="525.49" y="564.7845">Cache Layer</text></g><!--entity Routes--><g class="entity" data-entity="Routes" data-source-line="43" data-uid="ent0029" id="entity_Routes"><rect fill="#FFFFFF" height="36.2969" rx="2.5" ry="2.5" style="stroke:#000000;stroke-width:1;" width="68.5625" x="1031.72" y="638.0894"/><text fill="#000000" font-family="Verdana" font-size="14" lengthAdjust="spacing" textLength="48.5625" x="1041.72" y="661.0845">Routes</text></g><!--entity Middleware--><g class="entity" data-entity="Middleware" data-source-line="44" data-uid="ent0030" id="entity_Middleware"><rect fill="#FFFFFF" height="36.2969" rx="2.5" ry="2.5" style="stroke:#000000;stroke-width:1;" width="100.6436" x="1135.68" y="638.0894"/><text fill="#000000" font-family="Verdana" font-size="14" lengthAdjust="spacing" textLength="80.6436" x="1145.68" y="661.0845">Middleware</text></g><!--entity Controllers--><g class="entity" data-entity="Controllers" data-source-line="45" data-uid="ent0031" id="entity_Controllers"><rect fill="#FFFFFF" height="36.2969" rx="2.5" ry="2.5" style="stroke:#000000;stroke-width:1;" width="96.4668" x="1271.77" y="638.0894"/><text fill="#000000" font-family="Verdana" font-size="14" lengthAdjust="spacing" textLength="76.4668" x="1281.77" y="661.0845">Controllers</text></g><!--entity Socket Events--><g class="entity" data-entity="Socket Events" data-source-line="51" data-uid="ent0035" id="entity_Socket Events"><rect fill="#FFFFFF" height="36.2969" rx="2.5" ry="2.5" style="stroke:#000000;stroke-width:1;" width="119.21" x="1424.4" y="638.0894"/><text fill="#000000" font-family="Verdana" font-size="14" lengthAdjust="spacing" textLength="99.21" x="1434.4" y="661.0845">Socket Events</text></g><!--entity Room Mgmt--><g class="entity" data-entity="Room Mgmt" data-source-line="52" data-uid="ent0036" id="entity_Room Mgmt"><rect fill="#FFFFFF" height="36.2969" rx="2.5" ry="2.5" style="stroke:#000000;stroke-width:1;" width="105.0391" x="1726.48" y="638.0894"/><text fill="#000000" font-family="Verdana" font-size="14" lengthAdjust="spacing" textLength="85.0391" x="1736.48" y="661.0845">Room Mgmt</text></g><!--entity Broadcasting--><g class="entity" data-entity="Broadcasting" data-source-line="53" data-uid="ent0037" id="entity_Broadcasting"><rect fill="#FFFFFF" height="36.2969" rx="2.5" ry="2.5" style="stroke:#000000;stroke-width:1;" width="112.1006" x="1578.95" y="638.0894"/><text fill="#000000" font-family="Verdana" font-size="14" lengthAdjust="spacing" textLength="92.1006" x="1588.95" y="661.0845">Broadcasting</text></g><!--entity Presence & Typing--><g class="entity" data-entity="Presence . Typing" data-source-line="54" data-uid="ent0038" id="entity_Presence . Typing"><rect fill="#FFFFFF" height="36.2969" rx="2.5" ry="2.5" style="stroke:#000000;stroke-width:1;" width="151.0928" x="1424.45" y="765.3894"/><text fill="#000000" font-family="Verdana" font-size="14" lengthAdjust="spacing" textLength="131.0928" x="1434.45" y="788.3845">Presence &amp; Typing</text></g><!--entity Upload/Validation--><g class="entity" data-entity="Upload.Validation" data-source-line="59" data-uid="ent0041" id="entity_Upload.Validation"><rect fill="#FFFFFF" height="36.2969" rx="2.5" ry="2.5" style="stroke:#000000;stroke-width:1;" width="143.9902" x="1888" y="638.0894"/><text fill="#000000" font-family="Verdana" font-size="14" lengthAdjust="spacing" textLength="123.9902" x="1898" y="661.0845">Upload/Validation</text></g><!--entity Compression/Metadata--><g class="entity" data-entity="Compression.Metadata" data-source-line="60" data-uid="ent0042" id="entity_Compression.Metadata"><rect fill="#FFFFFF" height="36.2969" rx="2.5" ry="2.5" style="stroke:#000000;stroke-width:1;" width="182.1621" x="2066.92" y="638.0894"/><text fill="#000000" font-family="Verdana" font-size="14" lengthAdjust="spacing" textLength="162.1621" x="2076.92" y="661.0845">Compression/Metadata</text></g><!--entity CDN & Sharing--><g class="entity" data-entity="CDN . Sharing" data-source-line="61" data-uid="ent0043" id="entity_CDN . Sharing"><rect fill="#FFFFFF" height="36.2969" rx="2.5" ry="2.5" style="stroke:#000000;stroke-width:1;" width="124.5898" x="2283.71" y="638.0894"/><text fill="#000000" font-family="Verdana" font-size="14" lengthAdjust="spacing" textLength="104.5898" x="2293.71" y="661.0845">CDN &amp; Sharing</text></g><!--entity Redis Queue--><g class="entity" data-entity="Redis Queue" data-source-line="66" data-uid="ent0046" id="entity_Redis Queue"><rect fill="#FFFFFF" height="36.2969" rx="2.5" ry="2.5" style="stroke:#000000;stroke-width:1;" width="108.8535" x="50.57" y="638.0894"/><text fill="#000000" font-family="Verdana" font-size="14" lengthAdjust="spacing" textLength="88.8535" x="60.57" y="661.0845">Redis Queue</text></g><!--entity Event Bus--><g class="entity" data-entity="Event Bus" data-source-line="67" data-uid="ent0047" id="entity_Event Bus"><rect fill="#FFFFFF" height="36.2969" rx="2.5" ry="2.5" style="stroke:#000000;stroke-width:1;" width="90.3281" x="194.84" y="638.0894"/><text fill="#000000" font-family="Verdana" font-size="14" lengthAdjust="spacing" textLength="70.3281" x="204.84" y="661.0845">Event Bus</text></g><!--entity Notifications--><g class="entity" data-entity="Notifications" data-source-line="68" data-uid="ent0048" id="entity_Notifications"><rect fill="#FFFFFF" height="36.2969" rx="2.5" ry="2.5" style="stroke:#000000;stroke-width:1;" width="107.623" x="320.19" y="638.0894"/><text fill="#000000" font-family="Verdana" font-size="14" lengthAdjust="spacing" textLength="87.623" x="330.19" y="661.0845">Notifications</text></g><!--entity Redis--><g class="entity" data-entity="Redis" data-source-line="73" data-uid="ent0051" id="entity_Redis"><rect fill="#FFFFFF" height="36.2969" rx="2.5" ry="2.5" style="stroke:#000000;stroke-width:1;" width="58.4111" x="483.79" y="638.0894"/><text fill="#000000" font-family="Verdana" font-size="14" lengthAdjust="spacing" textLength="38.4111" x="493.79" y="661.0845">Redis</text></g><!--entity In-Memory--><g class="entity" data-entity="In-Memory" data-source-line="74" data-uid="ent0052" id="entity_In-Memory"><rect fill="#FFFFFF" height="36.2969" rx="2.5" ry="2.5" style="stroke:#000000;stroke-width:1;" width="94.9902" x="577.5" y="638.0894"/><text fill="#000000" font-family="Verdana" font-size="14" lengthAdjust="spacing" textLength="74.9902" x="587.5" y="661.0845">In-Memory</text></g><!--entity Hot Data & LRU--><g class="entity" data-entity="Hot Data . LRU" data-source-line="75" data-uid="ent0053" id="entity_Hot Data . LRU"><rect fill="#FFFFFF" height="36.2969" rx="2.5" ry="2.5" style="stroke:#000000;stroke-width:1;" width="130.0518" x="707.97" y="638.0894"/><text fill="#000000" font-family="Verdana" font-size="14" lengthAdjust="spacing" textLength="110.0518" x="717.97" y="661.0845">Hot Data &amp; LRU</text></g><!--entity Prometheus--><g class="entity" data-entity="Prometheus" data-source-line="80" data-uid="ent0055" id="entity_Prometheus"><rect fill="#FFFFFF" height="36.2969" rx="2.5" ry="2.5" style="stroke:#000000;stroke-width:1;" width="104.1572" x="2323.92" y="92.6094"/><text fill="#000000" font-family="Verdana" font-size="14" lengthAdjust="spacing" textLength="84.1572" x="2333.92" y="115.6045">Prometheus</text></g><!--entity Grafana--><g class="entity" data-entity="Grafana" data-source-line="81" data-uid="ent0056" id="entity_Grafana"><rect fill="#FFFFFF" height="36.2969" rx="2.5" ry="2.5" style="stroke:#000000;stroke-width:1;" width="76.1436" x="2462.93" y="92.6094"/><text fill="#000000" font-family="Verdana" font-size="14" lengthAdjust="spacing" textLength="56.1436" x="2472.93" y="115.6045">Grafana</text></g><!--entity ELK Stack--><g class="entity" data-entity="ELK Stack" data-source-line="82" data-uid="ent0057" id="entity_ELK Stack"><rect fill="#FFFFFF" height="36.2969" rx="2.5" ry="2.5" style="stroke:#000000;stroke-width:1;" width="89.0361" x="2331.48" y="222.8994"/><text fill="#000000" font-family="Verdana" font-size="14" lengthAdjust="spacing" textLength="69.0361" x="2341.48" y="245.8945">ELK Stack</text></g><!--entity MongoDB Primary--><g class="entity" data-entity="MongoDB Primary" data-source-line="86" data-uid="ent0059" id="entity_MongoDB Primary"><rect fill="#FFFFFF" height="36.2969" rx="2.5" ry="2.5" style="stroke:#000000;stroke-width:1;" width="146.1504" x="2487.92" y="638.0894"/><text fill="#000000" font-family="Verdana" font-size="14" lengthAdjust="spacing" textLength="126.1504" x="2497.92" y="661.0845">MongoDB Primary</text></g><!--entity Indexes--><g class="entity" data-entity="Indexes" data-source-line="92" data-uid="ent0064" id="entity_Indexes"><rect fill="#FFFFFF" height="36.2969" rx="2.5" ry="2.5" style="stroke:#000000;stroke-width:1;" width="74.6943" x="2668.65" y="638.0894"/><text fill="#000000" font-family="Verdana" font-size="14" lengthAdjust="spacing" textLength="54.6943" x="2678.65" y="661.0845">Indexes</text></g><!--entity users--><g class="entity" data-entity="users" data-source-line="88" data-uid="ent0061" id="entity_users"><rect fill="#FFFFFF" height="36.2969" rx="2.5" ry="2.5" style="stroke:#000000;stroke-width:1;" width="57.8301" x="2528.08" y="765.3894"/><text fill="#000000" font-family="Verdana" font-size="14" lengthAdjust="spacing" textLength="37.8301" x="2538.08" y="788.3845">users</text></g><!--entity rooms--><g class="entity" data-entity="rooms" data-source-line="89" data-uid="ent0062" id="entity_rooms"><rect fill="#FFFFFF" height="36.2969" rx="2.5" ry="2.5" style="stroke:#000000;stroke-width:1;" width="63.8184" x="2621.09" y="765.3894"/><text fill="#000000" font-family="Verdana" font-size="14" lengthAdjust="spacing" textLength="43.8184" x="2631.09" y="788.3845">rooms</text></g><!--entity messages--><g class="entity" data-entity="messages" data-source-line="90" data-uid="ent0063" id="entity_messages"><rect fill="#FFFFFF" height="36.2969" rx="2.5" ry="2.5" style="stroke:#000000;stroke-width:1;" width="90.2119" x="2527.89" y="861.6794"/><text fill="#000000" font-family="Verdana" font-size="14" lengthAdjust="spacing" textLength="70.2119" x="2537.89" y="884.6745">messages</text></g><!--link CloudFlare CDN to React Frontend--><g class="link" data-entity-1="CloudFlare CDN" data-entity-2="React Frontend" data-source-line="96" data-uid="lnk65" id="link_CloudFlare CDN_React Frontend"><path d="M744.42,111.8294 C964.93,112.2994 1669.58,115.4594 1713,136.8994 C1749.89,155.1194 1773.0744,192.929 1785.3044,217.249" fill="none" id="CloudFlare CDN-to-React Frontend" style="stroke:#000000;stroke-width:1;"/><polygon fill="#000000" points="1788,222.6094,1787.5302,212.7717,1785.7537,218.1424,1780.383,216.3659,1788,222.6094" style="stroke:#000000;stroke-width:1;"/></g><!--link React Frontend to Nginx / HAProxy--><g class="link" data-entity-1="React Frontend" data-entity-2="Nginx . HAProxy" data-source-line="97" data-uid="lnk66" id="link_React Frontend_Nginx . HAProxy"><path d="M1826.04,259.6094 C1860.94,280.0094 1912.9902,310.4212 1947.8502,330.8012" fill="none" id="React Frontend-to-Nginx / HAProxy" style="stroke:#000000;stroke-width:1;"/><polygon fill="#000000" points="1953.03,333.8294,1947.2792,325.8339,1948.7135,331.3059,1943.2415,332.7402,1953.03,333.8294" style="stroke:#000000;stroke-width:1;"/></g><!--link Nginx / HAProxy to API Router--><g class="link" data-entity-1="Nginx . HAProxy" data-entity-2="API Router" data-source-line="98" data-uid="lnk67" id="link_Nginx . HAProxy_API Router"><path d="M1983,370.6394 C1983,387.5494 1983,407.1594 1983,424.1394" fill="none" id="Nginx / HAProxy-to-API Router" style="stroke:#000000;stroke-width:1;"/><polygon fill="#000000" points="1983,430.1394,1987,421.1394,1983,425.1394,1979,421.1394,1983,430.1394" style="stroke:#000000;stroke-width:1;"/></g><!--link API Router to Express API--><g class="link" data-entity-1="API Router" data-entity-2="Express API" data-source-line="99" data-uid="lnk68" id="link_API Router_Express API"><path d="M1935.85,457.4194 C1815.15,477.3094 1501.6601,528.9934 1376.8901,549.5634" fill="none" id="API Router-to-Express API" style="stroke:#000000;stroke-width:1;"/><polygon fill="#000000" points="1370.97,550.5394,1380.5008,553.0221,1375.9034,549.726,1379.1995,545.1286,1370.97,550.5394" style="stroke:#000000;stroke-width:1;"/></g><!--link API Router to Socket.IO Server--><g class="link" data-entity-1="API Router" data-entity-2="Socket.IO Server" data-source-line="100" data-uid="lnk69" id="link_API Router_Socket.IO Server"><path d="M1983,467.1994 C1983,487.5994 1983,515.0494 1983,535.4194" fill="none" id="API Router-to-Socket.IO Server" style="stroke:#000000;stroke-width:1;"/><polygon fill="#000000" points="1983,541.4194,1987,532.4194,1983,536.4194,1979,532.4194,1983,541.4194" style="stroke:#000000;stroke-width:1;"/></g><!--link API Router to File Service--><g class="link" data-entity-1="API Router" data-entity-2="File Service" data-source-line="101" data-uid="lnk70" id="link_API Router_File Service"><path d="M2030.08,463.8194 C2098.47,484.4094 2219.045,520.7088 2289.455,541.9188" fill="none" id="API Router-to-File Service" style="stroke:#000000;stroke-width:1;"/><polygon fill="#000000" points="2295.2,543.6494,2287.7362,537.2235,2290.4125,542.2072,2285.4288,544.8835,2295.2,543.6494" style="stroke:#000000;stroke-width:1;"/></g><!--link Express API to Routes--><g class="link" data-entity-1="Express API" data-entity-2="Routes" data-source-line="102" data-uid="lnk71" id="link_Express API_Routes"><path d="M1268.92,565.6094 C1217.79,570.9794 1143.18,580.9094 1118,595.0894 C1100.08,605.1794 1088.6956,618.8855 1079.5656,632.7755" fill="none" id="Express API-to-Routes" style="stroke:#000000;stroke-width:1;"/><polygon fill="#000000" points="1076.27,637.7894,1084.556,632.4657,1079.0164,633.6112,1077.8709,628.0715,1076.27,637.7894" style="stroke:#000000;stroke-width:1;"/></g><!--link Express API to Controllers--><g class="link" data-entity-1="Express API" data-entity-2="Controllers" data-source-line="103" data-uid="lnk72" id="link_Express API_Controllers"><path d="M1320,578.2394 C1320,595.1394 1320,614.7494 1320,631.7294" fill="none" id="Express API-to-Controllers" style="stroke:#000000;stroke-width:1;"/><polygon fill="#000000" points="1320,637.7294,1324,628.7294,1320,632.7294,1316,628.7294,1320,637.7294" style="stroke:#000000;stroke-width:1;"/></g><!--link Express API to Business Logic--><g class="link" data-entity-1="Express API" data-entity-2="Business Logic" data-source-line="104" data-uid="lnk73" id="link_Express API_Business Logic"><path d="M1268.83,563.4594 C1194.54,567.6694 1060.78,577.4494 1016,595.0894 C991.56,604.7194 972.3744,619.6666 957.0144,633.7366" fill="none" id="Express API-to-Business Logic" style="stroke:#000000;stroke-width:1;"/><polygon fill="#000000" points="952.59,637.7894,961.9284,634.6598,956.277,634.4121,956.5247,628.7606,952.59,637.7894" style="stroke:#000000;stroke-width:1;"/></g><!--link Express API to MongoDB Primary--><g class="link" data-entity-1="Express API" data-entity-2="MongoDB Primary" data-source-line="105" data-uid="lnk74" id="link_Express API_MongoDB Primary"><path d="M1371.07,562.4594 C1587.4,568.8794 2417.49,593.6194 2424,595.0894 C2462.39,603.7694 2498.0291,620.4099 2525.0491,634.8599" fill="none" id="Express API-to-MongoDB Primary" style="stroke:#000000;stroke-width:1;"/><polygon fill="#000000" points="2530.34,637.6894,2524.29,629.9178,2525.9309,635.3314,2520.5173,636.9724,2530.34,637.6894" style="stroke:#000000;stroke-width:1;"/></g><!--link Socket.IO Server to Room Mgmt--><g class="link" data-entity-1="Socket.IO Server" data-entity-2="Room Mgmt" data-source-line="106" data-uid="lnk75" id="link_Socket.IO Server_Room Mgmt"><path d="M1915.26,578.5294 C1900.7,583.1994 1885.61,588.7394 1872,595.0894 C1846.73,606.8694 1825.113,621.085 1806.903,634.245" fill="none" id="Socket.IO Server-to-Room Mgmt" style="stroke:#000000;stroke-width:1;"/><polygon fill="#000000" points="1802.04,637.7594,1811.6775,635.7298,1806.0925,634.8307,1806.9916,629.2458,1802.04,637.7594" style="stroke:#000000;stroke-width:1;"/></g><!--link Socket.IO Server to MongoDB Primary--><g class="link" data-entity-1="Socket.IO Server" data-entity-2="MongoDB Primary" data-source-line="107" data-uid="lnk76" id="link_Socket.IO Server_MongoDB Primary"><path d="M2051.95,564.9994 C2166.98,571.9794 2388.94,586.3094 2424,595.0894 C2461.8,604.5594 2497.0098,620.8054 2524.1098,634.9354" fill="none" id="Socket.IO Server-to-MongoDB Primary" style="stroke:#000000;stroke-width:1;"/><polygon fill="#000000" points="2529.43,637.7094,2523.299,630.0016,2524.9965,635.3977,2519.6003,637.0952,2529.43,637.7094" style="stroke:#000000;stroke-width:1;"/></g><!--link File Service to CDN & Sharing--><g class="link" data-entity-1="File Service" data-entity-2="CDN . Sharing" data-source-line="108" data-uid="lnk77" id="link_File Service_CDN . Sharing"><path d="M2346,578.2394 C2346,595.1394 2346,614.7494 2346,631.7294" fill="none" id="File Service-to-CDN &amp; Sharing" style="stroke:#000000;stroke-width:1;"/><polygon fill="#000000" points="2346,637.7294,2350,628.7294,2346,632.7294,2342,628.7294,2346,637.7294" style="stroke:#000000;stroke-width:1;"/></g><!--link File Service to MongoDB Primary--><g class="link" data-entity-1="File Service" data-entity-2="MongoDB Primary" data-source-line="109" data-uid="lnk78" id="link_File Service_MongoDB Primary"><path d="M2386.09,578.4794 C2398.26,583.8094 2411.68,589.6894 2424,595.0894 C2456.59,609.3794 2488.0465,623.1867 2515.3465,635.1767" fill="none" id="File Service-to-MongoDB Primary" style="stroke:#000000;stroke-width:1;"/><polygon fill="#000000" points="2520.84,637.5894,2514.2082,630.3079,2516.2621,635.5788,2510.9912,637.6326,2520.84,637.5894" style="stroke:#000000;stroke-width:1;"/></g><!--link Message Queue to Redis Queue--><g class="link" data-entity-1="Message Queue" data-entity-2="Redis Queue" data-source-line="110" data-uid="lnk79" id="link_Message Queue_Redis Queue"><path d="M204.19,578.5794 C195.13,583.5794 185.52,589.2594 177,595.0894 C157.91,608.1394 142.308,621.2147 128.228,633.8347" fill="none" id="Message Queue-to-Redis Queue" style="stroke:#000000;stroke-width:1;"/><polygon fill="#000000" points="123.76,637.8394,133.1317,634.811,127.4833,634.5022,127.7922,628.8537,123.76,637.8394" style="stroke:#000000;stroke-width:1;"/></g><!--link Message Queue to Notifications--><g class="link" data-entity-1="Message Queue" data-entity-2="Notifications" data-source-line="111" data-uid="lnk80" id="link_Message Queue_Notifications"><path d="M275,578.4194 C284.35,583.4294 294.25,589.1494 303,595.0894 C321.98,607.9794 337.3244,621.0179 351.1644,633.6879" fill="none" id="Message Queue-to-Notifications" style="stroke:#000000;stroke-width:1;"/><polygon fill="#000000" points="355.59,637.7394,351.6526,628.7118,351.902,634.3632,346.2507,634.6126,355.59,637.7394" style="stroke:#000000;stroke-width:1;"/></g><!--link Cache Layer to Redis--><g class="link" data-entity-1="Cache Layer" data-entity-2="Redis" data-source-line="112" data-uid="lnk81" id="link_Cache Layer_Redis"><path d="M558.73,578.2394 C548.69,595.1394 536.5428,615.59 526.4628,632.57" fill="none" id="Cache Layer-to-Redis" style="stroke:#000000;stroke-width:1;"/><polygon fill="#000000" points="523.4,637.7294,531.4338,632.0322,525.9523,633.4299,524.5546,627.9484,523.4,637.7294" style="stroke:#000000;stroke-width:1;"/></g><!--link Cache Layer to In-Memory--><g class="link" data-entity-1="Cache Layer" data-entity-2="In-Memory" data-source-line="113" data-uid="lnk82" id="link_Cache Layer_In-Memory"><path d="M579.27,578.2394 C589.31,595.1394 601.4572,615.59 611.5372,632.57" fill="none" id="Cache Layer-to-In-Memory" style="stroke:#000000;stroke-width:1;"/><polygon fill="#000000" points="614.6,637.7294,613.4454,627.9484,612.0477,633.4299,606.5662,632.0322,614.6,637.7294" style="stroke:#000000;stroke-width:1;"/></g><!--link MongoDB Primary to Collections--><g class="link" data-entity-1="MongoDB Primary" data-entity-2="Collections" data-source-line="114" data-uid="lnk83" id="link_MongoDB Primary_Collections"><path d="M2593.51,674.6794 C2610.26,682.9994 2631.27,692.4194 2651,698.3894 C2672.54,704.8994 2684.42,691.1694 2701,706.3894 C2704.1125,709.2444 2706.7498,712.5245 2708.9815,716.085 C2710.0973,717.8652 2711.1117,719.7155 2712.0333,721.6178 C2712.1485,721.8556 2709.7135,738.9593 2709.8258,739.1987" fill="none" id="MongoDB Primary-to-Collections" style="stroke:#000000;stroke-width:1;"/><polygon fill="#000000" points="2712.3746,744.6305,2712.1726,734.7837,2710.2506,740.104,2704.9303,738.182,2712.3746,744.6305" style="stroke:#000000;stroke-width:1;"/></g><!--SRC=[TLNRSjem47ttLsnvI9EPKlwWCmH2mjJG59FqMPKte46MFBASm7JoxrrX0vObNZ91PozdRyTVx1OBX58oeP9g9rJ932k0wwBK2fNDx44Y6EIMgOt4ZacERwoMTerxEvPYemgo1av_q2I95PRS9bjcX-EoXEnGMInWRFXMM8fL6uJRLpHMS2Q_mP8PepyWPGTTsxiaAHdViGt2OEwYARHm0vFfqXcW6S2_12u4OJ2Hkivdab5CCXhuu7IPmGehBMihjEg1MPQErca6QpI5K2nYaMgMmpsJJ76XDltOKvt1iz6kegFhPuVwH0fd5AUyGiOjp8oc-bJkmbxyJbPLu-MNIWtz8rIkFmPzQ85LHG5IKTa0UwdGd83FRhBCCekmO8f-kVb5Kgumh_UZYMEw3oDdb9LAXyMc2AEtBSZGl0kEiNh6ptDehCB8ckzey5VGSMstfy1Dtcxl7wcg3tQuqlpbHgWzZE1fJBFR7tf3NRcEfAAWFJKzoB5TqOQ6W6FJ9lMtu9x-eGbVOVAmBmqr42YmjmCkKSV3v-S8LE7uHPvBocymWDpiZ9OIJNKQKGUzhokX78bKRmHt1aba3j_dluxjRae_4wKzbaCh2emGRGVuy7xSvR0CNPotnYTawEOugsnxS1xuJFr2nP44ONqeMmjgk6Sq4wGzdUKuqpq2CsHEVsBh-59AoZrwPLBaPpNezR8uZeomqG8j8pCM6f5KtK2sPUOAmVPMuNUDjS_m-4BED9NuBOhgukNlaklpqQ-FBBKLRoIqhg0gHcV2-1RRXVFkbzvT1LU818dcQhZ0Gfj3W3nf2rDg5LMMhbx2Wrre9QmsvsJUn7M1z95g2ki0ZuQzaN3rNX_Idq2gndV-7RhaVrc5LmwHyc_qz9x4N1IiuTyHP3eTtZGlx4HTjMVblHhQxl2rQCOUkyAvod7l42Bz5UXYLPiIRgMxIoP1cnpDNTB_tC5m-2FyeFGV6gj0-OANnguhTDqV3UgfLWY7WX7Q-1VgHMphQLKk0dbo5i7xWXOn2SOTaZxHEAlKDPCmbbTSozbNX9X96CTNYTESEmeGjUXTktVSdHXHf7F00PzJyo_7y1y0]--></g></svg>