<svg width="34" height="34" viewBox="0 0 34 34" fill="none" xmlns="http://www.w3.org/2000/svg">
<path d="M1 1V33H33M15.5778 5.97778H5.62222C5.19556 5.97778 4.91111 5.69333 4.91111 5.26667V2.42222C4.91111 1.99556 5.19556 1.71111 5.62222 1.71111H15.5778C16.0044 1.71111 16.2889 1.99556 16.2889 2.42222V5.26667C16.2889 5.69333 16.0044 5.97778 15.5778 5.97778ZM25.8889 13.4444H10.9556C10.5289 13.4444 10.2444 13.16 10.2444 12.7333V9.88889C10.2444 9.46222 10.5289 9.17778 10.9556 9.17778H25.8889C26.3156 9.17778 26.6 9.46222 26.6 9.88889V12.7333C26.6 13.16 26.3156 13.4444 25.8889 13.4444ZM30.1556 20.9111H18.0667C17.64 20.9111 17.3556 20.6267 17.3556 20.2V17.3556C17.3556 16.9289 17.64 16.6444 18.0667 16.6444H30.1556C30.5822 16.6444 30.8667 16.9289 30.8667 17.3556V20.2C30.8667 20.6267 30.5822 20.9111 30.1556 20.9111ZM18.4222 28.3778H6.33333C5.90667 28.3778 5.62222 28.0933 5.62222 27.6667V24.8222C5.62222 24.3956 5.90667 24.1111 6.33333 24.1111H18.4222C18.8489 24.1111 19.1333 24.3956 19.1333 24.8222V27.6667C19.1333 28.0933 18.8489 28.3778 18.4222 28.3778ZM32.2889 28.3778H26.6C26.1733 28.3778 25.8889 28.0933 25.8889 27.6667V24.8222C25.8889 24.3956 26.1733 24.1111 26.6 24.1111H32.2889C32.7156 24.1111 33 24.3956 33 24.8222V27.6667C33 28.0933 32.7156 28.3778 32.2889 28.3778Z" stroke="white" stroke-width="2" stroke-linecap="round" stroke-linejoin="round"/>
</svg>
