<svg width="39" height="36" viewBox="0 0 39 36" fill="none" xmlns="http://www.w3.org/2000/svg">
<path d="M5.84007 34.7679L2.608 30.7479C1.57392 29.4684 1.00675 27.8746 1 26.2295V17.884C0.999986 17.2415 1.25631 16.6255 1.71213 16.1727C2.16795 15.7199 2.78559 15.4677 3.42808 15.472C4.76018 15.472 5.84007 16.5519 5.84007 17.884V24.1069M13.0761 34.7679V29.7188C13.0789 28.2919 12.6532 26.897 11.854 25.7149L10.0209 22.9492C9.69984 22.4154 9.17339 22.0373 8.5651 21.9034C7.95681 21.7696 7.32025 21.8919 6.80487 22.2416C5.86431 22.874 5.54055 24.1071 6.04911 25.1199L8.25206 28.7379M33.176 34.7679L36.392 30.7158C37.4261 29.4362 37.9932 27.8425 38 26.1973V17.884C38 16.5519 36.9201 15.472 35.588 15.472C34.2559 15.472 33.176 16.5519 33.176 17.884V24.1069M25.94 34.7679V29.7188C25.9372 28.2919 26.3629 26.897 27.1621 25.7149L28.9952 22.9492C29.3162 22.4154 29.8427 22.0373 30.451 21.9034C31.0593 21.7696 31.6958 21.8919 32.2112 22.2416C33.1518 22.874 33.4755 24.1071 32.967 25.1199L30.764 28.7379M26.744 1.804L33.176 8.23598L26.744 14.668M13.8801 1.804L7.44807 8.23598L13.8801 14.668M21.92 1L18.704 15.472" stroke="white" stroke-width="2" stroke-linecap="round" stroke-linejoin="round"/>
</svg>
